# xmcd
#
# Track frame offsets: 
#        150
#        11240
#        23543
#        38783
#        53480
#        67443
#        81340
#        94765
#        106978
#        119888
#        129543
#        142683
#        154915
#        166055
#        179472
#
# Disc length: 2549 seconds
#
# Revision: 0
# Processed by: cddbd v1.5.1PL0 Copyright (c) Steve Scherf et al.
# Submitted via: ExactAudioCopy v0.90b4
#
DISCID=c909f30f
DTITLE=Otis Redding - The Great Otis Redding Sings Soul  Ballads
DYEAR=1965
DGENRE=Soul
TTITLE0=That's How Strong My Love Is
TTITLE1=Chained and Bound
TTITLE2=A Woman, a Lover, a Friend
TTITLE3=Your One and Only Man
TTITLE4=Nothing Can Change This Love
TTITLE5=It's Too Late
TTITLE6=For Your Precious Love
TTITLE7=I Want to Thank You
TTITLE8=Come to Me
TTITLE9=Home in Your Heart
TTITLE10=Keep Your Arms Around Me
TTITLE11=Mr. Pitiful
TTITLE12=Pain in My Heart [bonus]
TTITLE13=My Girl [bonus]
TTITLE14=Lovely Dovey (with Carla Thomas) [bonus]
EXTD=
EXTT0=
EXTT1=
EXTT2=
EXTT3=
EXTT4=
EXTT5=
EXTT6=
EXTT7=
EXTT8=
EXTT9=
EXTT10=
EXTT11=
EXTT12=
EXTT13=
EXTT14=
PLAYORDER=
